<svg viewBox="0 0 1440 800" preserveAspectRatio="none" xmlns="http://www.w3.org/2000/svg">
  <!-- Diagonal split background -->
  <defs>
    <linearGradient id="diagonal" x1="0" y1="0" x2="1" y2="1">
      <stop offset="0%" stop-color="#000"/>
      <stop offset="100%" stop-color="#ef4444"/>
    </linearGradient>
  </defs>
  <rect width="1440" height="800" fill="url(#diagonal)" />
  <!-- Top black wave -->
  <path d="M0,0 C400,120 1040,0 1440,100 L1440,0 L0,0 Z" fill="#000" fill-opacity="0.85"/>
  <!-- Top red wave -->
  <path d="M0,0 C320,80 1120,0 1440,80 L1440,0 L0,0 Z" fill="#ef4444" fill-opacity="0.35"/>
  <!-- Subtle white highlight wave -->
  <path d="M0,0 C600,60 900,40 1440,60 L1440,0 L0,0 Z" fill="#fff" fill-opacity="0.04"/>
  <!-- Bottom red wave -->
  <path d="M0,800 C400,700 1040,900 1440,720 L1440,800 L0,800 Z" fill="#ef4444" fill-opacity="0.7"/>
  <!-- Bottom black wave -->
  <path d="M0,800 C320,760 1120,820 1440,700 L1440,800 L0,800 Z" fill="#000" fill-opacity="0.5"/>
</svg> 